# This file uses centimeters as units for non-parametric coordinates.

mtllib Bridge.mtl
g default
v -0.479700 -0.861158 12.321812
v 0.928190 -0.861158 12.321812
v -0.479700 -0.861158 -12.642551
v 0.928190 -0.861158 -12.642551
v 0.576252 1.164436 12.321812
v 0.928190 0.812498 12.321812
v -0.479700 0.812498 12.321812
v -0.127762 1.164436 12.321812
v -0.127762 1.164436 -12.642551
v -0.479700 0.812498 -12.642551
v 0.576252 1.164436 -12.642551
v 0.928190 0.812498 -12.642551
vt 0.671927 0.807065
vt 0.646734 0.807065
vt 0.646734 0.807065
vt 0.671927 0.807065
vt 0.665630 0.807065
vt 0.671927 0.807065
vt 0.671927 0.807065
vt 0.665630 0.807065
vt 0.646734 0.807065
vt 0.653032 0.807065
vt 0.653032 0.807065
vt 0.646734 0.807065
vn 0.000000 0.000000 -1.000000
vn 0.000000 0.000000 -1.000000
vn 0.000000 -1.000000 0.000000
vn 0.000000 -1.000000 0.000000
vn 0.707106 0.707108 0.000000
vn 0.707106 0.707108 0.000000
vn 0.707106 0.707108 0.000000
vn 0.707106 0.707108 0.000000
vn -0.707107 0.707107 0.000000
vn -0.707107 0.707107 0.000000
vn -0.707107 0.707107 0.000000
vn -0.707107 0.707107 0.000000
vn -1.000000 0.000000 0.000000
vn -1.000000 0.000000 0.000000
vn -1.000000 0.000000 0.000000
vn -1.000000 0.000000 0.000000
vn 0.000000 1.000000 0.000000
vn 0.000000 1.000000 0.000000
vn 0.000000 1.000000 0.000000
vn 0.000000 1.000000 0.000000
vn 1.000000 0.000000 0.000000
vn 1.000000 0.000000 0.000000
vn 1.000000 0.000000 0.000000
vn 1.000000 0.000000 0.000000
s off
g initialShadingGroup pCube7
f 2/1/1 1/2/2 3/3/3 4/4/4
f 5/5/5 6/6/6 12/7/7 11/8/8
f 7/9/9 8/10/10 9/11/11 10/12/12
f 1/2/13 7/9/14 10/12/15 3/3/16
f 8/10/17 5/5/18 11/8/19 9/11/20
f 6/6/21 2/1/22 4/4/23 12/7/24
