# This file uses centimeters as units for non-parametric coordinates.

mtllib GiantBlock.mtl
g default
v -1.420236 -0.642285 3.240172
v 3.291643 -0.642285 3.240172
v -1.420236 3.644078 3.240172
v 3.291643 3.644078 3.240172
v -1.420236 3.644078 -2.638628
v 3.291643 3.644078 -2.638628
v -1.420236 -0.642285 -2.638628
v 3.291643 -0.642285 -2.638628
vt 0.897680 0.210927
vt 0.940091 0.210927
vt 0.940091 0.253338
vt 0.897680 0.253338
vt 0.940091 0.295750
vt 0.897680 0.295750
vt 0.940091 0.338161
vt 0.897680 0.338161
vt 0.940091 0.380573
vt 0.897680 0.380573
vt 0.982503 0.210927
vt 0.982503 0.253338
vt 0.855268 0.210927
vt 0.855268 0.253338
vn 0.000000 0.000000 1.000000
vn 0.000000 0.000000 1.000000
vn 0.000000 0.000000 1.000000
vn 0.000000 0.000000 1.000000
vn 0.000000 1.000000 0.000000
vn 0.000000 1.000000 0.000000
vn 0.000000 1.000000 0.000000
vn 0.000000 1.000000 0.000000
vn 0.000000 0.000000 -1.000000
vn 0.000000 0.000000 -1.000000
vn 0.000000 0.000000 -1.000000
vn 0.000000 0.000000 -1.000000
vn 0.000000 -1.000000 0.000000
vn 0.000000 -1.000000 0.000000
vn 0.000000 -1.000000 0.000000
vn 0.000000 -1.000000 0.000000
vn 1.000000 0.000000 0.000000
vn 1.000000 0.000000 0.000000
vn 1.000000 0.000000 0.000000
vn 1.000000 0.000000 0.000000
vn -1.000000 0.000000 0.000000
vn -1.000000 0.000000 0.000000
vn -1.000000 0.000000 0.000000
vn -1.000000 0.000000 0.000000
s off
g pCube5
usemtl lambert2SG
f 1/1/1 2/2/2 4/3/3 3/4/4
f 3/4/5 4/3/6 6/5/7 5/6/8
f 5/6/9 6/5/10 8/7/11 7/8/12
f 7/8/13 8/7/14 2/9/15 1/10/16
f 2/2/17 8/11/18 6/12/19 4/3/20
f 7/13/21 1/1/22 3/4/23 5/14/24
