# This file uses centimeters as units for non-parametric coordinates.

mtllib TurnRight.mtl
g default
v -5.268764 -0.263000 5.711476
v -2.093764 -0.263000 5.711476
v -5.268764 0.263000 5.711476
v -2.093764 0.263000 5.711476
v -5.268764 0.263000 4.572491
v -2.093764 0.263000 4.572491
v -5.268764 -0.263000 4.572491
v -2.093764 -0.263000 4.572491
v -5.214671 0.263000 3.398563
v -2.147857 0.263000 4.220313
v -2.147857 -0.263000 4.220313
v -5.214671 -0.263000 3.398563
v -4.813741 0.263000 2.111269
v -2.064111 0.263000 3.698769
v -2.064111 -0.263000 3.698769
v -4.813741 -0.263000 2.111269
v -4.061776 0.263000 0.917013
v -1.816712 0.263000 3.162078
v -1.816712 -0.263000 3.162078
v -4.061776 -0.263000 0.917013
v -3.487334 0.263000 0.342572
v -1.242270 0.263000 2.587636
v -1.242270 -0.263000 2.587636
v -3.487334 -0.263000 0.342572
v -2.649880 0.263000 -0.418383
v -1.062380 0.263000 2.331247
v -1.062380 -0.263000 2.331247
v -2.649880 -0.263000 -0.418383
v -1.422820 0.263000 -1.064366
v -0.601070 0.263000 2.002449
v -0.601070 -0.263000 2.002449
v -1.422820 -0.263000 -1.064366
v 0.022471 0.263000 -1.395629
v 0.022472 0.263000 1.779370
v 0.022472 -0.263000 1.779370
v 0.022471 -0.263000 -1.395629
v 5.306784 -0.263000 -5.328618
v 2.131784 -0.263000 -5.328618
v 5.306784 0.263000 -5.328618
v 2.131784 0.263000 -5.328618
v 5.306784 0.263000 -4.189634
v 2.131784 0.263000 -4.189634
v 5.306784 -0.263000 -4.189634
v 2.131784 -0.263000 -4.189634
v 5.252692 0.263000 -3.015705
v 2.185877 0.263000 -3.837456
v 2.185877 -0.263000 -3.837456
v 5.252692 -0.263000 -3.015705
v 4.851762 0.263000 -1.728411
v 2.102131 0.263000 -3.315911
v 2.102131 -0.263000 -3.315911
v 4.851762 -0.263000 -1.728411
v 4.099796 0.263000 -0.534155
v 1.854733 0.263000 -2.779220
v 1.854733 -0.263000 -2.779220
v 4.099796 -0.263000 -0.534155
v 3.525354 0.263000 0.040286
v 1.280290 0.263000 -2.204779
v 1.280290 -0.263000 -2.204779
v 3.525354 -0.263000 0.040286
v 2.687900 0.263000 0.801241
v 1.100401 0.263000 -1.948389
v 1.100401 -0.263000 -1.948389
v 2.687900 -0.263000 0.801241
v 1.460841 0.263000 1.447223
v 0.639090 0.263000 -1.619591
v 0.639090 -0.263000 -1.619591
v 1.460841 -0.263000 1.447223
v 0.015549 0.263000 1.778487
v 0.015549 0.263000 -1.396513
v 0.015549 -0.263000 -1.396513
v 0.015549 -0.263000 1.778487
vt 0.375000 0.000000
vt 0.625000 0.000000
vt 0.375000 0.250000
vt 0.625000 0.250000
vt 0.375000 0.500000
vt 0.625000 0.500000
vt 0.375000 0.750000
vt 0.625000 0.750000
vt 0.375000 1.000000
vt 0.625000 1.000000
vt 0.875000 0.000000
vt 0.875000 0.250000
vt 0.125000 0.000000
vt 0.125000 0.250000
vt 0.375000 0.500000
vt 0.625000 0.500000
vt 0.625000 0.750000
vt 0.375000 0.750000
vt 0.375000 0.500000
vt 0.625000 0.500000
vt 0.625000 0.750000
vt 0.375000 0.750000
vt 0.375000 0.500000
vt 0.625000 0.500000
vt 0.625000 0.750000
vt 0.375000 0.750000
vt 0.375000 0.500000
vt 0.625000 0.500000
vt 0.625000 0.750000
vt 0.375000 0.750000
vt 0.375000 0.500000
vt 0.625000 0.500000
vt 0.625000 0.750000
vt 0.375000 0.750000
vt 0.375000 0.500000
vt 0.625000 0.500000
vt 0.625000 0.750000
vt 0.375000 0.750000
vt 0.375000 0.500000
vt 0.625000 0.500000
vt 0.625000 0.750000
vt 0.375000 0.750000
vt 0.375000 0.000000
vt 0.625000 0.000000
vt 0.625000 0.250000
vt 0.375000 0.250000
vt 0.625000 0.500000
vt 0.375000 0.500000
vt 0.375000 0.500000
vt 0.625000 0.500000
vt 0.625000 0.750000
vt 0.375000 0.750000
vt 0.375000 0.750000
vt 0.625000 0.750000
vt 0.625000 1.000000
vt 0.375000 1.000000
vt 0.875000 0.000000
vt 0.875000 0.250000
vt 0.125000 0.000000
vt 0.125000 0.250000
vt 0.625000 0.500000
vt 0.375000 0.500000
vt 0.625000 0.750000
vt 0.375000 0.750000
vt 0.625000 0.500000
vt 0.375000 0.500000
vt 0.625000 0.750000
vt 0.375000 0.750000
vt 0.625000 0.500000
vt 0.375000 0.500000
vt 0.625000 0.750000
vt 0.375000 0.750000
vt 0.625000 0.500000
vt 0.375000 0.500000
vt 0.625000 0.750000
vt 0.375000 0.750000
vt 0.625000 0.500000
vt 0.375000 0.500000
vt 0.625000 0.750000
vt 0.375000 0.750000
vt 0.625000 0.500000
vt 0.375000 0.500000
vt 0.625000 0.750000
vt 0.375000 0.750000
vn 0.000000 0.000000 1.000000
vn 0.000000 0.000000 1.000000
vn 0.000000 0.000000 1.000000
vn 0.000000 0.000000 1.000000
vn 0.000000 1.000000 0.000000
vn 0.000000 1.000000 0.000000
vn 0.000000 1.000000 -0.000000
vn 0.000000 1.000000 -0.000000
vn 1.000000 0.000000 -0.000000
vn 1.000000 0.000000 -0.000000
vn 1.000000 0.000000 -0.000000
vn 1.000000 0.000000 -0.000000
vn 0.000000 -1.000000 -0.000000
vn 0.000000 -1.000000 -0.000000
vn 0.000000 -1.000000 0.000000
vn 0.000000 -1.000000 0.000000
vn 1.000000 0.000000 0.000000
vn 0.999343 0.000000 -0.036252
vn 0.999343 0.000000 -0.036252
vn 1.000000 0.000000 0.000000
vn -0.999727 0.000000 -0.023381
vn -1.000000 0.000000 0.000000
vn -1.000000 0.000000 0.000000
vn -0.999727 0.000000 -0.023381
vn 0.000000 1.000000 -0.000000
vn 0.000000 1.000000 -0.000000
vn 0.999425 0.000000 0.033920
vn 0.999425 0.000000 0.033920
vn 0.000000 -1.000000 -0.000000
vn 0.000000 -1.000000 -0.000000
vn -0.983336 0.000000 -0.181796
vn -0.983336 0.000000 -0.181796
vn 0.000000 1.000000 0.000000
vn 0.000000 1.000000 0.000000
vn 0.954365 0.000000 0.298641
vn 0.954365 0.000000 0.298641
vn 0.000000 -1.000000 0.000000
vn 0.000000 -1.000000 0.000000
vn -0.906905 0.000000 -0.421336
vn -0.906905 0.000000 -0.421336
vn 0.000000 1.000000 0.000000
vn 0.000000 1.000000 0.000000
vn 0.803980 0.000000 0.594657
vn 0.803980 0.000000 0.594657
vn 0.000000 -1.000000 0.000000
vn 0.000000 -1.000000 0.000000
vn -0.800025 0.000000 -0.599967
vn -0.800025 0.000000 -0.599967
vn 0.000000 1.000000 -0.000000
vn 0.000000 1.000000 -0.000000
vn 0.740369 0.000000 0.672200
vn 0.740369 0.000000 0.672200
vn 0.000000 -1.000000 0.000000
vn 0.000000 -1.000000 0.000000
vn -0.687151 0.000000 -0.726515
vn -0.687151 0.000000 -0.726515
vn 0.000000 1.000000 -0.000000
vn 0.000000 1.000000 -0.000000
vn 0.674108 0.000000 0.738633
vn 0.674108 0.000000 0.738633
vn 0.000000 -1.000000 0.000000
vn 0.000000 -1.000000 0.000000
vn -0.563149 0.000000 -0.826355
vn -0.563149 0.000000 -0.826355
vn 0.000000 1.000000 -0.000000
vn 0.000000 1.000000 -0.000000
vn 0.453415 0.000000 0.891300
vn 0.453415 0.000000 0.891300
vn 0.000000 -1.000000 0.000000
vn 0.000000 -1.000000 0.000000
vn -0.343444 0.000000 -0.939173
vn -0.343444 0.000000 -0.939173
vn 0.000000 1.000000 0.000000
vn 0.000000 1.000000 0.000000
vn 0.336852 0.000000 0.941557
vn 0.336852 0.000000 0.941557
vn 0.000000 -1.000000 0.000000
vn 0.000000 -1.000000 0.000000
vn -0.223409 0.000000 -0.974725
vn -0.223409 0.000000 -0.974725
vn 0.000000 0.000000 -1.000000
vn 0.000000 0.000000 -1.000000
vn 0.000000 0.000000 -1.000000
vn 0.000000 0.000000 -1.000000
vn 0.000000 1.000000 0.000000
vn 0.000000 1.000000 0.000000
vn 0.000000 1.000000 0.000000
vn 0.000000 1.000000 0.000000
vn -1.000000 0.000000 0.000000
vn -1.000000 0.000000 0.000000
vn -1.000000 0.000000 0.000000
vn -1.000000 0.000000 0.000000
vn 0.000000 -1.000000 0.000000
vn 0.000000 -1.000000 0.000000
vn 0.000000 -1.000000 0.000000
vn 0.000000 -1.000000 0.000000
vn -1.000000 0.000000 0.000000
vn -0.999343 0.000000 0.036252
vn -0.999343 0.000000 0.036252
vn -1.000000 0.000000 0.000000
vn 0.999727 0.000000 0.023381
vn 1.000000 0.000000 0.000000
vn 1.000000 0.000000 0.000000
vn 0.999727 0.000000 0.023381
vn 0.000000 1.000000 -0.000000
vn 0.000000 1.000000 -0.000000
vn -0.999425 0.000000 -0.033920
vn -0.999425 0.000000 -0.033920
vn 0.000000 -1.000000 -0.000000
vn 0.000000 -1.000000 -0.000000
vn 0.983336 0.000000 0.181796
vn 0.983336 0.000000 0.181796
vn 0.000000 1.000000 -0.000000
vn 0.000000 1.000000 -0.000000
vn -0.954366 0.000000 -0.298641
vn -0.954366 0.000000 -0.298641
vn 0.000000 -1.000000 -0.000000
vn 0.000000 -1.000000 -0.000000
vn 0.906905 0.000000 0.421336
vn 0.906905 0.000000 0.421336
vn 0.000000 1.000000 0.000000
vn 0.000000 1.000000 0.000000
vn -0.803980 0.000000 -0.594657
vn -0.803980 0.000000 -0.594657
vn 0.000000 -1.000000 0.000000
vn 0.000000 -1.000000 0.000000
vn 0.800025 0.000000 0.599966
vn 0.800025 0.000000 0.599966
vn 0.000000 1.000000 0.000000
vn 0.000000 1.000000 0.000000
vn -0.740369 0.000000 -0.672200
vn -0.740369 0.000000 -0.672200
vn 0.000000 -1.000000 -0.000000
vn 0.000000 -1.000000 -0.000000
vn 0.687151 0.000000 0.726515
vn 0.687151 0.000000 0.726515
vn 0.000000 1.000000 0.000000
vn 0.000000 1.000000 0.000000
vn -0.674109 0.000000 -0.738632
vn -0.674109 0.000000 -0.738632
vn 0.000000 -1.000000 -0.000000
vn 0.000000 -1.000000 -0.000000
vn 0.563150 0.000000 0.826355
vn 0.563150 0.000000 0.826355
vn 0.000000 1.000000 0.000000
vn 0.000000 1.000000 0.000000
vn -0.453414 0.000000 -0.891300
vn -0.453414 0.000000 -0.891300
vn 0.000000 -1.000000 -0.000000
vn 0.000000 -1.000000 -0.000000
vn 0.343444 0.000000 0.939173
vn 0.343444 0.000000 0.939173
vn 0.000000 1.000000 0.000000
vn 0.000000 1.000000 0.000000
vn -0.336851 0.000000 -0.941558
vn -0.336851 0.000000 -0.941558
vn 0.000000 -1.000000 -0.000000
vn 0.000000 -1.000000 -0.000000
vn 0.223409 0.000000 0.974725
vn 0.223409 0.000000 0.974725
s off
g CubeStraight3
usemtl initialShadingGroup
f 1/1/1 2/2/2 4/4/3 3/3/4
s 1
f 3/3/5 4/4/6 6/6/7 5/5/8
s off
f 33/39/9 34/40/10 35/41/11 36/42/12
s 2
f 7/7/13 8/8/14 2/10/15 1/9/16
s 3
f 2/2/17 8/11/18 6/12/19 4/4/20
s 4
f 7/13/21 1/1/22 3/3/23 5/14/24
s 1
f 5/5/8 6/6/7 10/16/25 9/15/26
s 3
f 6/6/19 8/8/18 11/17/27 10/16/28
s 2
f 8/8/14 7/7/13 12/18/29 11/17/30
s 4
f 7/7/21 5/5/24 9/15/31 12/18/32
s 1
f 9/15/26 10/16/25 14/20/33 13/19/34
s 3
f 10/16/28 11/17/27 15/21/35 14/20/36
s 2
f 11/17/30 12/18/29 16/22/37 15/21/38
s 4
f 12/18/32 9/15/31 13/19/39 16/22/40
s 1
f 13/19/34 14/20/33 18/24/41 17/23/42
s 3
f 14/20/36 15/21/35 19/25/43 18/24/44
s 2
f 15/21/38 16/22/37 20/26/45 19/25/46
s 4
f 16/22/40 13/19/39 17/23/47 20/26/48
s 1
f 17/23/42 18/24/41 22/28/49 21/27/50
s 3
f 18/24/44 19/25/43 23/29/51 22/28/52
s 2
f 19/25/46 20/26/45 24/30/53 23/29/54
s 4
f 20/26/48 17/23/47 21/27/55 24/30/56
s 1
f 21/27/50 22/28/49 26/32/57 25/31/58
s 3
f 22/28/52 23/29/51 27/33/59 26/32/60
s 2
f 23/29/54 24/30/53 28/34/61 27/33/62
s 4
f 24/30/56 21/27/55 25/31/63 28/34/64
s 1
f 25/31/58 26/32/57 30/36/65 29/35/66
s 3
f 26/32/60 27/33/59 31/37/67 30/36/68
s 2
f 27/33/62 28/34/61 32/38/69 31/37/70
s 4
f 28/34/64 25/31/63 29/35/71 32/38/72
s 1
f 29/35/66 30/36/65 34/40/73 33/39/74
s 3
f 30/36/68 31/37/67 35/41/75 34/40/76
s 2
f 31/37/70 32/38/69 36/42/77 35/41/78
s 4
f 32/38/72 29/35/71 33/39/79 36/42/80
s off
f 37/43/81 38/44/82 40/45/83 39/46/84
s 5
f 39/46/85 40/45/86 42/47/87 41/48/88
s off
f 69/49/89 70/50/90 71/51/91 72/52/92
s 6
f 43/53/93 44/54/94 38/55/95 37/56/96
s 7
f 38/44/97 44/57/98 42/58/99 40/45/100
s 8
f 43/59/101 37/43/102 39/46/103 41/60/104
s 5
f 41/48/88 42/47/87 46/61/105 45/62/106
s 7
f 42/47/99 44/54/98 47/63/107 46/61/108
s 6
f 44/54/94 43/53/93 48/64/109 47/63/110
s 8
f 43/53/101 41/48/104 45/62/111 48/64/112
s 5
f 45/62/106 46/61/105 50/65/113 49/66/114
s 7
f 46/61/108 47/63/107 51/67/115 50/65/116
s 6
f 47/63/110 48/64/109 52/68/117 51/67/118
s 8
f 48/64/112 45/62/111 49/66/119 52/68/120
s 5
f 49/66/114 50/65/113 54/69/121 53/70/122
s 7
f 50/65/116 51/67/115 55/71/123 54/69/124
s 6
f 51/67/118 52/68/117 56/72/125 55/71/126
s 8
f 52/68/120 49/66/119 53/70/127 56/72/128
s 5
f 53/70/122 54/69/121 58/73/129 57/74/130
s 7
f 54/69/124 55/71/123 59/75/131 58/73/132
s 6
f 55/71/126 56/72/125 60/76/133 59/75/134
s 8
f 56/72/128 53/70/127 57/74/135 60/76/136
s 5
f 57/74/130 58/73/129 62/77/137 61/78/138
s 7
f 58/73/132 59/75/131 63/79/139 62/77/140
s 6
f 59/75/134 60/76/133 64/80/141 63/79/142
s 8
f 60/76/136 57/74/135 61/78/143 64/80/144
s 5
f 61/78/138 62/77/137 66/81/145 65/82/146
s 7
f 62/77/140 63/79/139 67/83/147 66/81/148
s 6
f 63/79/142 64/80/141 68/84/149 67/83/150
s 8
f 64/80/144 61/78/143 65/82/151 68/84/152
s 5
f 65/82/146 66/81/145 70/50/153 69/49/154
s 7
f 66/81/148 67/83/147 71/51/155 70/50/156
s 6
f 67/83/150 68/84/149 72/52/157 71/51/158
s 8
f 68/84/152 65/82/151 69/49/159 72/52/160
