# This file uses centimeters as units for non-parametric coordinates.

mtllib World2_Floor.mtl
g default
v -141.910026 -0.713000 -65.324966
v -61.188762 -0.713000 -65.324966
v -141.910026 -0.187000 -65.324966
v -61.188762 -0.187000 -65.324966
v -141.910026 -0.187000 -95.523445
v -61.188762 -0.187000 -95.523445
v -141.910026 -0.713000 -95.523445
v -61.188762 -0.713000 -95.523445
vt 0.642410 0.388690
vt 0.683468 0.388690
vt 0.683468 0.429748
vt 0.642410 0.429748
vt 0.683468 0.470806
vt 0.642410 0.470806
vt 0.683468 0.511864
vt 0.642410 0.511864
vt 0.683468 0.552922
vt 0.642410 0.552922
vt 0.724526 0.388690
vt 0.724526 0.429748
vt 0.601352 0.388690
vt 0.601352 0.429748
vn 0.000000 0.000000 1.000000
vn 0.000000 0.000000 1.000000
vn 0.000000 0.000000 1.000000
vn 0.000000 0.000000 1.000000
vn 0.000000 1.000000 0.000000
vn 0.000000 1.000000 0.000000
vn 0.000000 1.000000 0.000000
vn 0.000000 1.000000 0.000000
vn 0.000000 0.000000 -1.000000
vn 0.000000 0.000000 -1.000000
vn 0.000000 0.000000 -1.000000
vn 0.000000 0.000000 -1.000000
vn 0.000000 -1.000000 0.000000
vn 0.000000 -1.000000 0.000000
vn 0.000000 -1.000000 0.000000
vn 0.000000 -1.000000 0.000000
vn 1.000000 0.000000 0.000000
vn 1.000000 0.000000 0.000000
vn 1.000000 0.000000 0.000000
vn 1.000000 0.000000 0.000000
vn -1.000000 0.000000 0.000000
vn -1.000000 0.000000 0.000000
vn -1.000000 0.000000 0.000000
vn -1.000000 0.000000 0.000000
s off
g pCube4
usemtl lambert2SG
f 1/1/1 2/2/2 4/3/3 3/4/4
f 3/4/5 4/3/6 6/5/7 5/6/8
f 5/6/9 6/5/10 8/7/11 7/8/12
f 7/8/13 8/7/14 2/9/15 1/10/16
f 2/2/17 8/11/18 6/12/19 4/3/20
f 7/13/21 1/1/22 3/4/23 5/14/24
g default
v -51.344837 -0.713000 -65.324966
v 1.570457 -0.713000 -65.324966
v -51.344837 -0.187000 -65.324966
v 1.570457 -0.187000 -65.324966
v -51.344837 -0.187000 -95.523445
v 1.570457 -0.187000 -95.523445
v -51.344837 -0.713000 -95.523445
v 1.570457 -0.713000 -95.523445
vt 0.642410 0.388690
vt 0.683468 0.388690
vt 0.683468 0.429748
vt 0.642410 0.429748
vt 0.683468 0.470806
vt 0.642410 0.470806
vt 0.683468 0.511864
vt 0.642410 0.511864
vt 0.683468 0.552922
vt 0.642410 0.552922
vt 0.724526 0.388690
vt 0.724526 0.429748
vt 0.601352 0.388690
vt 0.601352 0.429748
vn 0.000000 0.000000 1.000000
vn 0.000000 0.000000 1.000000
vn 0.000000 0.000000 1.000000
vn 0.000000 0.000000 1.000000
vn 0.000000 1.000000 0.000000
vn 0.000000 1.000000 0.000000
vn 0.000000 1.000000 0.000000
vn 0.000000 1.000000 0.000000
vn 0.000000 0.000000 -1.000000
vn 0.000000 0.000000 -1.000000
vn 0.000000 0.000000 -1.000000
vn 0.000000 0.000000 -1.000000
vn 0.000000 -1.000000 0.000000
vn 0.000000 -1.000000 0.000000
vn 0.000000 -1.000000 0.000000
vn 0.000000 -1.000000 0.000000
vn 1.000000 0.000000 0.000000
vn 1.000000 0.000000 0.000000
vn 1.000000 0.000000 0.000000
vn 1.000000 0.000000 0.000000
vn -1.000000 0.000000 0.000000
vn -1.000000 0.000000 0.000000
vn -1.000000 0.000000 0.000000
vn -1.000000 0.000000 0.000000
s off
g World2_Floor:pCube4
usemtl lambert2SG
f 9/15/25 10/16/26 12/17/27 11/18/28
f 11/18/29 12/17/30 14/19/31 13/20/32
f 13/20/33 14/19/34 16/21/35 15/22/36
f 15/22/37 16/21/38 10/23/39 9/24/40
f 10/16/41 16/25/42 14/26/43 12/17/44
f 15/27/45 9/15/46 11/18/47 13/28/48
