# This file uses centimeters as units for non-parametric coordinates.

mtllib World2_Floor.mtl
g default
v -26.376891 -0.281334 15.211062
v 26.376891 -0.281334 15.211062
v -26.376891 0.281334 15.211062
v 26.376891 0.281334 15.211062
v -26.376891 0.281334 -15.211062
v 26.376891 0.281334 -15.211062
v -26.376891 -0.281334 -15.211062
v 26.376891 -0.281334 -15.211062
vt 0.188942 0.094905
vt 0.239731 0.094905
vt 0.188942 0.145694
vt 0.239731 0.145694
vt 0.188942 0.196483
vt 0.239731 0.196483
vt 0.188942 0.247272
vt 0.239731 0.247272
vt 0.188942 0.298061
vt 0.239731 0.298061
vt 0.290520 0.094905
vt 0.290520 0.145694
vt 0.138153 0.094905
vt 0.138153 0.145694
vn 0.000000 0.000000 1.000000
vn 0.000000 0.000000 1.000000
vn 0.000000 0.000000 1.000000
vn 0.000000 0.000000 1.000000
vn 0.000000 1.000000 0.000000
vn 0.000000 1.000000 0.000000
vn 0.000000 1.000000 0.000000
vn 0.000000 1.000000 0.000000
vn 0.000000 0.000000 -1.000000
vn 0.000000 0.000000 -1.000000
vn 0.000000 0.000000 -1.000000
vn 0.000000 0.000000 -1.000000
vn 0.000000 -1.000000 0.000000
vn 0.000000 -1.000000 0.000000
vn 0.000000 -1.000000 0.000000
vn 0.000000 -1.000000 0.000000
vn 1.000000 0.000000 0.000000
vn 1.000000 0.000000 0.000000
vn 1.000000 0.000000 0.000000
vn 1.000000 0.000000 0.000000
vn -1.000000 0.000000 0.000000
vn -1.000000 0.000000 0.000000
vn -1.000000 0.000000 0.000000
vn -1.000000 0.000000 0.000000
s off
g pCube43
usemtl lambert2SG
f 1/1/1 2/2/2 4/4/3 3/3/4
f 3/3/5 4/4/6 6/6/7 5/5/8
f 5/5/9 6/6/10 8/8/11 7/7/12
f 7/7/13 8/8/14 2/10/15 1/9/16
f 2/2/17 8/11/18 6/12/19 4/4/20
f 7/13/21 1/1/22 3/3/23 5/14/24
