# This file uses centimeters as units for non-parametric coordinates.

mtllib TurnLeft.mtl
g default
v -1.587500 0.263000 -2.131463
v 1.587500 0.263000 -2.131463
v -1.587500 -0.263000 -2.131465
v 1.587500 -0.263000 -2.131465
v -1.533407 0.263000 -2.778797
v 1.533407 0.263000 -3.600547
v 1.533407 -0.263000 -3.600547
v -1.533407 -0.263000 -2.778797
v -1.577202 0.263000 -3.151241
v 1.172429 0.263000 -4.738739
v 1.172429 -0.263000 -4.738739
v -1.577202 -0.263000 -3.151241
v -1.775612 0.263000 -3.603084
v 0.469452 0.263000 -5.848148
v 0.469452 -0.263000 -5.848148
v -1.775612 -0.263000 -3.603084
v -2.268973 0.263000 -4.172947
v -0.681473 0.263000 -6.922574
v -0.681473 -0.263000 -6.922574
v -2.268973 -0.263000 -4.172947
v -2.580078 0.263000 -4.415025
v -1.758327 0.263000 -7.481835
v -1.758327 -0.263000 -7.481835
v -2.580078 -0.263000 -4.415025
v -3.870005 0.263000 -4.816662
v -2.282505 0.263000 -7.566291
v -2.282505 -0.263000 -7.566291
v -3.870005 -0.263000 -4.816662
v -5.069895 0.263000 -5.571877
v -2.824833 0.263000 -7.816941
v -2.824833 -0.263000 -7.816941
v -5.069895 -0.263000 -5.571877
v -6.295228 0.263000 -6.873707
v -3.545600 0.263000 -8.461207
v -3.545600 -0.263000 -8.461207
v -6.295228 -0.263000 -6.873707
v -6.295228 0.263000 -6.873707
v -3.545600 0.263000 -8.461207
v -3.545600 -0.263000 -8.461207
v -6.295228 -0.263000 -6.873707
v -6.690620 0.263000 -7.666731
v -3.623808 0.263000 -8.488480
v -3.623808 -0.263000 -8.488480
v -6.690620 -0.263000 -7.666731
v -6.941020 0.263000 -8.810235
v -3.766022 0.263000 -8.810234
v -3.766022 -0.263000 -8.810234
v -6.941020 -0.263000 -8.810235
vt 0.375000 0.500000
vt 0.625000 0.500000
vt 0.375000 0.750000
vt 0.625000 0.750000
vt 0.375000 0.500000
vt 0.625000 0.500000
vt 0.625000 0.750000
vt 0.375000 0.750000
vt 0.375000 0.500000
vt 0.625000 0.500000
vt 0.625000 0.750000
vt 0.375000 0.750000
vt 0.375000 0.500000
vt 0.625000 0.500000
vt 0.625000 0.750000
vt 0.375000 0.750000
vt 0.375000 0.500000
vt 0.625000 0.500000
vt 0.625000 0.750000
vt 0.375000 0.750000
vt 0.375000 0.500000
vt 0.625000 0.500000
vt 0.625000 0.750000
vt 0.375000 0.750000
vt 0.375000 0.500000
vt 0.625000 0.500000
vt 0.625000 0.750000
vt 0.375000 0.750000
vt 0.375000 0.500000
vt 0.625000 0.500000
vt 0.625000 0.750000
vt 0.375000 0.750000
vt 0.375000 0.500000
vt 0.625000 0.500000
vt 0.625000 0.750000
vt 0.375000 0.750000
vt 0.375000 0.500000
vt 0.625000 0.500000
vt 0.625000 0.750000
vt 0.375000 0.750000
vt 0.375000 0.500000
vt 0.625000 0.500000
vt 0.625000 0.750000
vt 0.375000 0.750000
vt 0.375000 0.500000
vt 0.625000 0.500000
vt 0.625000 0.750000
vt 0.375000 0.750000
vn 0.000000 0.000000 -1.000000
vn 0.000000 0.000000 -1.000000
vn 0.000000 0.000000 -1.000000
vn 0.000000 0.000000 -1.000000
vn 0.000000 1.000000 0.000000
vn 0.000000 1.000000 0.000000
vn 0.000000 1.000000 -0.000000
vn 0.000000 1.000000 -0.000000
vn 0.999323 0.000000 -0.036796
vn 0.999323 0.000000 -0.036796
vn 0.987564 0.000000 -0.157218
vn 0.987564 0.000000 -0.157218
vn 0.000000 -1.000000 0.000000
vn 0.000000 -1.000000 0.000000
vn 0.000000 -1.000000 0.000000
vn 0.000000 -1.000000 0.000000
vn -0.996527 0.000000 -0.083272
vn -0.996527 0.000000 -0.083272
vn -0.999949 0.000000 -0.010098
vn -0.999949 0.000000 -0.010098
vn 0.000000 1.000000 -0.000000
vn 0.000000 1.000000 -0.000000
vn 0.903846 0.000000 -0.427857
vn 0.903846 0.000000 -0.427857
vn 0.000000 -1.000000 0.000000
vn 0.000000 -1.000000 0.000000
vn -0.959439 0.000000 0.281917
vn -0.959439 0.000000 0.281917
vn 0.000000 1.000000 0.000000
vn 0.000000 1.000000 0.000000
vn 0.762345 0.000000 -0.647170
vn 0.762345 0.000000 -0.647170
vn 0.000000 -1.000000 0.000000
vn 0.000000 -1.000000 0.000000
vn -0.828051 0.000000 0.560653
vn -0.828051 0.000000 0.560653
vn 0.000000 1.000000 0.000000
vn 0.000000 1.000000 0.000000
vn 0.591360 0.000000 -0.806408
vn 0.591360 0.000000 -0.806408
vn 0.000000 -1.000000 -0.000000
vn 0.000000 -1.000000 -0.000000
vn -0.710369 0.000000 0.703829
vn -0.710369 0.000000 0.703829
vn 0.000000 1.000000 0.000000
vn 0.000000 1.000000 0.000000
vn 0.373041 0.000000 -0.927815
vn 0.373041 0.000000 -0.927815
vn 0.000000 -1.000000 -0.000000
vn 0.000000 -1.000000 -0.000000
vn -0.373040 0.000000 0.927815
vn -0.373040 0.000000 0.927815
vn 0.000000 1.000000 0.000000
vn 0.000000 1.000000 0.000000
vn 0.299760 0.000000 -0.954015
vn 0.299760 0.000000 -0.954015
vn 0.000000 -1.000000 0.000000
vn 0.000000 -1.000000 0.000000
vn -0.421371 0.000000 0.906888
vn -0.421371 0.000000 0.906888
vn 0.000000 1.000000 0.000000
vn 0.000000 1.000000 0.000000
vn 0.578114 0.000000 -0.815956
vn 0.578114 0.000000 -0.815956
vn 0.000000 -1.000000 -0.000000
vn 0.000000 -1.000000 -0.000000
vn -0.646846 0.000000 0.762621
vn -0.646846 0.000000 0.762621
vn 0.000000 1.000000 0.000000
vn 0.000000 1.000000 0.000000
vn 0.666432 0.000000 -0.745566
vn 0.666432 0.000000 -0.745566
vn 0.000000 -1.000000 -0.000000
vn 0.000000 -1.000000 -0.000000
vn -0.728177 0.000000 0.685389
vn -0.728177 0.000000 0.685389
vn 0.000000 0.000000 0.000000
vn 0.000000 0.000000 0.000000
vn 0.000000 0.000000 0.000000
vn 0.000000 0.000000 0.000000
vn 0.000000 0.000000 0.000000
vn 0.000000 0.000000 0.000000
vn 0.000000 0.000000 0.000000
vn 0.000000 0.000000 0.000000
vn 0.000000 0.000000 0.000000
vn 0.000000 0.000000 0.000000
vn 0.000000 0.000000 0.000000
vn 0.000000 0.000000 0.000000
vn 0.000000 0.000000 0.000000
vn 0.000000 0.000000 0.000000
vn 0.000000 0.000000 0.000000
vn 0.000000 0.000000 0.000000
vn 0.000000 1.000000 0.000000
vn 0.000000 1.000000 0.000000
vn 0.000000 1.000000 0.000000
vn 0.000000 1.000000 0.000000
vn 0.329276 0.000000 -0.944234
vn 0.329276 0.000000 -0.944234
vn 0.329276 0.000000 -0.944234
vn 0.329276 0.000000 -0.944234
vn 0.000000 -1.000000 0.000000
vn 0.000000 -1.000000 0.000000
vn 0.000000 -1.000000 0.000000
vn 0.000000 -1.000000 0.000000
vn -0.894932 0.000000 0.446202
vn -0.894932 0.000000 0.446202
vn -0.948642 0.000000 0.316352
vn -0.948642 0.000000 0.316352
vn 0.000000 1.000000 0.000000
vn 0.000000 1.000000 0.000000
vn 0.914640 0.000000 -0.404269
vn 0.914640 0.000000 -0.404269
vn 0.914640 0.000000 -0.404269
vn 0.914640 0.000000 -0.404269
vn 0.000000 -1.000000 0.000000
vn 0.000000 -1.000000 0.000000
vn -0.976854 0.000000 0.213907
vn -0.976854 0.000000 0.213907
vn 0.000000 -0.000004 1.000000
vn 0.000000 -0.000004 1.000000
vn 0.000000 -0.000004 1.000000
vn 0.000000 -0.000004 1.000000
s off
g CubeLeftTurn
usemtl initialShadingGroup
f 45/45/1 46/46/2 47/47/3 48/48/4
s 1
f 1/1/5 2/2/6 6/6/7 5/5/8
s 2
f 2/2/9 4/4/10 7/7/11 6/6/12
s 3
f 4/4/13 3/3/14 8/8/15 7/7/16
s 4
f 3/3/17 1/1/18 5/5/19 8/8/20
s 1
f 5/5/8 6/6/7 10/10/21 9/9/22
s 2
f 6/6/12 7/7/11 11/11/23 10/10/24
s 3
f 7/7/16 8/8/15 12/12/25 11/11/26
s 4
f 8/8/20 5/5/19 9/9/27 12/12/28
s 1
f 9/9/22 10/10/21 14/14/29 13/13/30
s 2
f 10/10/24 11/11/23 15/15/31 14/14/32
s 3
f 11/11/26 12/12/25 16/16/33 15/15/34
s 4
f 12/12/28 9/9/27 13/13/35 16/16/36
s 1
f 13/13/30 14/14/29 18/18/37 17/17/38
s 2
f 14/14/32 15/15/31 19/19/39 18/18/40
s 3
f 15/15/34 16/16/33 20/20/41 19/19/42
s 4
f 16/16/36 13/13/35 17/17/43 20/20/44
s 1
f 17/17/38 18/18/37 22/22/45 21/21/46
s 2
f 18/18/40 19/19/39 23/23/47 22/22/48
s 3
f 19/19/42 20/20/41 24/24/49 23/23/50
s 4
f 20/20/44 17/17/43 21/21/51 24/24/52
s 1
f 21/21/46 22/22/45 26/26/53 25/25/54
s 2
f 22/22/48 23/23/47 27/27/55 26/26/56
s 3
f 23/23/50 24/24/49 28/28/57 27/27/58
s 4
f 24/24/52 21/21/51 25/25/59 28/28/60
s 1
f 25/25/54 26/26/53 30/30/61 29/29/62
s 2
f 26/26/56 27/27/55 31/31/63 30/30/64
s 3
f 27/27/58 28/28/57 32/32/65 31/31/66
s 4
f 28/28/60 25/25/59 29/29/67 32/32/68
s 1
f 29/29/62 30/30/61 34/34/69 33/33/70
s 2
f 30/30/64 31/31/63 35/35/71 34/34/72
s 3
f 31/31/66 32/32/65 36/36/73 35/35/74
s 4
f 32/32/68 29/29/67 33/33/75 36/36/76
s off
f 33/33/77 34/34/78 38/38/79 37/37/80
f 34/34/81 35/35/82 39/39/83 38/38/84
f 35/35/85 36/36/86 40/40/87 39/39/88
f 36/36/89 33/33/90 37/37/91 40/40/92
s 5
f 37/37/93 38/38/94 42/42/95 41/41/96
s off
f 38/38/97 39/39/98 43/43/99 42/42/100
s 6
f 39/39/101 40/40/102 44/44/103 43/43/104
s 7
f 40/40/105 37/37/106 41/41/107 44/44/108
s 5
f 41/41/96 42/42/95 46/46/109 45/45/110
s off
f 42/42/111 43/43/112 47/47/113 46/46/114
s 6
f 43/43/104 44/44/103 48/48/115 47/47/116
s 7
f 44/44/108 41/41/107 45/45/117 48/48/118
s off
f 1/1/119 3/3/120 4/4/121 2/2/122
